<?xml version="1.0" encoding="utf-8"?>
<!-- Generator: Adobe Illustrator 27.3.1, SVG Export Plug-In . SVG Version: 6.00 Build 0)  -->
<svg version="1.1" id="Layer_1" xmlns="http://www.w3.org/2000/svg" xmlns:xlink="http://www.w3.org/1999/xlink" x="0px" y="0px"
	 viewBox="0 0 841.89 595.28" style="enable-background:new 0 0 841.89 595.28;" xml:space="preserve">
<style type="text/css">
	.st0{display:none;fill:url(#SVGID_1_);}
	.st1{display:none;fill:url(#SVGID_00000183208943380940987100000012529869690599926449_);}
	.st2{fill:url(#SVGID_00000156568247425240599580000012346344664483896481_);}
	.st3{display:none;opacity:0.2;fill:#6D66FF;}
</style>
<linearGradient id="SVGID_1_" gradientUnits="userSpaceOnUse" x1="376.0327" y1="176.8094" x2="848.5588" y2="176.8094">
	<stop  offset="0" style="stop-color:#7B6FDE"/>
	<stop  offset="0" style="stop-color:#6D66FF"/>
	<stop  offset="1" style="stop-color:#2C2A89"/>
</linearGradient>
<path class="st0" d="M376.03,353.62c12.19-28.54,36.03-52.76,63.26-70.91c33.51-22.34,72.24-36.83,110.1-52.15
	s75.88-32.04,106.34-57.83c19.86-16.82,37.02-40.55,32-64.99c-3.64-17.74-18.14-31.71-32.56-43.91
	c-14.42-12.21-29.99-24.5-37.09-41.33c-2.95-6.99-3.77-15.01-2.44-22.5l232.91,0v353.62H376.03"/>
<linearGradient id="SVGID_00000165222447545515284460000010156981454890944423_" gradientUnits="userSpaceOnUse" x1="645.5997" y1="103.2553" x2="841.8898" y2="103.2553">
	<stop  offset="0" style="stop-color:#6D66FF"/>
	<stop  offset="1" style="stop-color:#2C2A89"/>
</linearGradient>
<path style="display:none;fill:url(#SVGID_00000165222447545515284460000010156981454890944423_);" d="M645.75,0
	c-1.25,13.79,5.36,24.48,16.32,33.99c11.79,10.23,28.07,14.42,42.67,20.84c34.59,15.2,61.37,44.85,71.38,79.01
	c3.57,12.17,5.14,24.94,10.65,36.48c9.22,19.32,32.67,32.98,55.12,36.19V0L645.75,0z"/>
<linearGradient id="SVGID_00000165921258668662064880000010231459184482945415_" gradientUnits="userSpaceOnUse" x1="521.4841" y1="249.3786" x2="845.3687" y2="249.3786">
	<stop  offset="0" style="stop-color:#6D66FF"/>
	<stop  offset="1" style="stop-color:#2C2A89"/>
</linearGradient>
<path style="fill:url(#SVGID_00000165921258668662064880000010231459184482945415_);" d="M845.37,183.79
	c-19.68-25.21-53.45-41.11-85.27-38.34c-14.88,1.29-30.75,7.16-37.93,20.28c-5.37,9.8-4.87,21.69-8.09,32.4
	c-5.92,19.74-24.09,33.69-43.4,40.78c-19.31,7.09-40.13,8.59-60.45,11.73c-20.33,3.14-41.16,8.36-57.09,21.39
	c-14.74,12.06-23.96,29.94-28.24,48.52c-2.5,10.84-3.43,21.93-3.42,33.07h323.88V183.79z"/>
<path class="st3" d="M248.66,130.99c-1.34,16.48,4,33.7,10.25,49.48c8.28,20.89,18.32,42.22,16.59,64.5
	c-0.85,10.99-4.65,21.77-10.93,31.02c-11.63,17.14-30.73,28.1-49.17,38.46c-40.14,22.56-80.28,45.13-120.42,67.69
	c-24.82,13.95-50.32,28.48-67.48,50.56c-10.72,13.8-12.52,34.98-12.27,51.91h467.38V130.99L248.66,130.99z"/>
</svg>
